<?xml version="1.0" encoding="UTF-8" standalone="no"?>
<!-- Created with Inkscape (http://www.inkscape.org/) -->

<svg
   xmlns:dc="http://purl.org/dc/elements/1.1/"
   xmlns:cc="http://creativecommons.org/ns#"
   xmlns:rdf="http://www.w3.org/1999/02/22-rdf-syntax-ns#"
   xmlns:svg="http://www.w3.org/2000/svg"
   xmlns="http://www.w3.org/2000/svg"
   xmlns:sodipodi="http://sodipodi.sourceforge.net/DTD/sodipodi-0.dtd"
   xmlns:inkscape="http://www.inkscape.org/namespaces/inkscape"
   width="941.26038mm"
   height="123.9147mm"
   viewBox="0 0 941.26038 123.9147"
   version="1.1"
   id="svg4557"
   inkscape:version="0.92.4 (5da689c313, 2019-01-14)"
   sodipodi:docname="autobiz-trade.svg">
  <defs
     id="defs4551" />
  <sodipodi:namedview
     id="base"
     pagecolor="#ffffff"
     bordercolor="#666666"
     borderopacity="1.0"
     inkscape:pageopacity="0.0"
     inkscape:pageshadow="2"
     inkscape:zoom="0.24748737"
     inkscape:cx="1247.5901"
     inkscape:cy="700.29023"
     inkscape:document-units="mm"
     inkscape:current-layer="g42"
     showgrid="false"
     inkscape:window-width="1920"
     inkscape:window-height="1001"
     inkscape:window-x="-9"
     inkscape:window-y="-9"
     inkscape:window-maximized="1"
     inkscape:snap-page="false"
     inkscape:snap-to-guides="true"
     fit-margin-top="0"
     fit-margin-left="0"
     fit-margin-right="0"
     fit-margin-bottom="0" />
  <metadata
     id="metadata4554">
    <rdf:RDF>
      <cc:Work
         rdf:about="">
        <dc:format>image/svg+xml</dc:format>
        <dc:type
           rdf:resource="http://purl.org/dc/dcmitype/StillImage" />
        <dc:title></dc:title>
      </cc:Work>
    </rdf:RDF>
  </metadata>
  <g
     inkscape:label="Calque 1"
     inkscape:groupmode="layer"
     id="layer1"
     transform="translate(314.67987,-328.52993)">
    <g
       id="g35"
       transform="translate(17.10525,-546.29892)">
      <g
         id="g42"
         transform="translate(-102.6315,473.60161)">
        <g
           transform="translate(359.55675,595.23277)"
           inkscape:export-ydpi="96"
           inkscape:export-xdpi="96"
           id="g6069">
          <path
             style="fill:#3c3664;fill-opacity:1;stroke-width:0.26458335"
             d="m -322.41567,-71.806925 c -8.85868,-0.91422 -15.51393,-3.808986 -20.85422,-9.070755 -6.91575,-6.814068 -9.70133,-15.796119 -9.70425,-31.29121 -0.003,-16.15687 2.77708,-25.42075 9.85079,-32.82457 4.97867,-5.211 10.6338,-8.23068 18.33603,-9.79092 3.41789,-0.69236 15.0454,-0.69635 18.51123,-0.006 14.17445,2.82192 22.55949,10.89899 25.49192,24.55566 1.00058,4.65977 1.2315,7.71247 1.21859,16.10953 -0.0138,8.91929 -0.32824,12.19009 -1.68682,17.541794 -1.55051,6.107671 -4.44386,11.185091 -8.79319,15.430852 -5.05413,4.933746 -10.96751,7.810013 -18.47945,8.98839 -3.12328,0.489937 -10.71452,0.685358 -13.89063,0.357582 z m 10.83228,-20.887941 c 5.21795,-2.006396 7.39751,-8.328504 7.38823,-21.430684 -0.007,-10.31856 -1.19264,-15.66211 -4.12473,-18.59418 -1.51497,-1.51498 -3.0902,-2.06286 -6.42583,-2.23497 -4.08326,-0.21069 -7.18505,0.6735 -9.1078,2.59625 -3.02181,3.0218 -4.45556,10.4725 -4.17047,21.67249 0.31607,12.417919 2.15056,16.853106 7.6014,18.377698 2.16839,0.606494 6.78117,0.404741 8.8392,-0.386604 z m -256.49791,20.606964 c -2.89416,-0.331131 -6.35651,-1.399307 -9.10147,-2.807909 -1.95641,-1.003951 -2.88527,-1.710639 -4.95377,-3.768881 -2.27223,-2.260965 -2.6893,-2.831131 -3.88041,-5.304856 -2.40401,-4.992714 -3.17444,-10.280176 -2.40855,-16.529952 1.38449,-11.29765 8.24438,-18.14143 21.18666,-21.13692 4.36744,-1.01085 7.53872,-1.30338 15.82629,-1.45987 l 8.33437,-0.15738 -0.0635,-2.91042 c -0.17824,-8.17226 -3.4082,-10.77398 -12.88377,-10.37783 -6.49277,0.27144 -11.02808,1.81344 -15.21025,5.17147 -0.81171,0.65175 -1.60982,1.28839 -1.77358,1.41476 -0.19865,0.1533 -2.13572,-1.90801 -5.82083,-6.19418 -3.0377,-3.53317 -5.70064,-6.64808 -5.91763,-6.92203 -0.36637,-0.46252 -0.26305,-0.61845 1.44685,-2.1836 7.72463,-7.07074 18.42543,-10.02783 33.74039,-9.32392 15.7638,0.72453 24.30213,6.41337 27.39371,18.25161 1.24692,4.7747 1.24092,4.62367 1.36287,34.30695 l 0.1155,28.111985 h -10.335 -10.33499 v -4.894792 c 0,-2.692135 -0.0893,-4.893979 -0.19844,-4.892984 -0.10914,0.0011 -0.4897,0.429416 -0.84567,0.952045 -1.04045,1.527524 -4.23487,4.652443 -6.14105,6.007436 -3.5081,2.493705 -7.81279,4.083396 -12.65166,4.672165 -2.53666,0.308647 -4.0318,0.303676 -6.8861,-0.02289 z m 12.22526,-18.426099 c 6.55963,-2.547109 12.33983,-9.589709 13.09348,-15.953099 l 0.15497,-1.30845 h -6.32765 c -9.35976,0 -12.42667,0.53671 -14.48389,2.53466 -1.94755,1.89143 -2.69583,4.54398 -2.48967,8.82543 0.18605,3.863543 1.29184,5.894996 3.62546,6.660353 1.28256,0.420637 4.3103,0.06314 6.4273,-0.758894 z m 72.97057,18.448814 c -10.59314,-1.253051 -16.91463,-8.247819 -18.64117,-20.626562 -0.34818,-2.496365 -0.40883,-7.188049 -0.40883,-31.629351 v -28.69819 h 12.03854 12.03855 v 26.18072 c 0,18.35979 0.0888,26.59957 0.29718,27.582822 0.79258,3.739334 2.92383,5.475805 6.34047,5.165994 5.11805,-0.46409 9.46558,-5.463624 11.57503,-13.310976 1.38586,-5.1555 1.42407,-5.80499 1.55135,-26.37013 l 0.11912,-19.24843 h 12.01884 12.01884 v 39.5552 39.555215 h -11.23982 -11.23983 l -0.0711,-5.91266 -0.0711,-5.912659 -1.05834,1.714756 c -3.65015,5.914128 -8.69588,9.742797 -14.95369,11.346778 -1.57052,0.402548 -7.2422,1.002525 -8.19735,0.867153 -0.21828,-0.03093 -1.17078,-0.147793 -2.11667,-0.25968 z m 257.01594,-0.622745 c -6.11444,-1.003382 -10.49046,-3.264908 -14.55105,-7.519974 l -1.61322,-1.690505 -0.17272,1.652331 c -0.095,0.90878 -0.17269,2.334355 -0.17269,3.167944 0,0.833588 -0.0744,1.887685 -0.16536,2.342438 l -0.16537,0.826823 h -10.15338 -10.15339 v -59.398965 -59.39895 h 12.03854 12.03854 l 0.004,23.87864 0.004,23.87865 1.38229,-1.56834 c 5.52215,-6.2653 14.03252,-9.33853 23.20166,-8.37847 13.76638,1.44142 21.07779,10.31559 23.34543,28.33535 0.5628,4.47223 0.47588,20.10683 -0.13676,24.60625 -2.3264,17.085494 -9.50558,26.370014 -22.40767,28.978872 -2.7976,0.565692 -9.65343,0.725876 -12.32234,0.287906 z m 3.52492,-20.141268 c 1.65491,-0.491456 3.66,-2.227278 4.62872,-4.007117 1.87569,-3.446263 2.43867,-8.080613 2.25026,-18.523973 -0.11375,-6.30418 -0.23035,-8.05289 -0.67165,-10.07124 -1.26436,-5.78288 -3.43974,-8.20678 -7.60981,-8.4792 -7.46133,-0.48742 -13.93849,6.99874 -15.63053,18.06539 -0.57094,3.73426 -0.35668,10.10305 0.43162,12.83041 1.43385,4.960839 4.59184,8.571785 8.73051,9.9828 2.10521,0.717738 5.81525,0.81339 7.87088,0.20293 z m -161.98356,19.713046 c -12.27491,-0.827741 -19.44491,-5.802773 -22.3187,-15.486235 -1.41674,-4.773821 -1.43716,-5.09157 -1.55059,-24.134091 l -0.10599,-17.79323 h -5.80559 -5.80559 v -10.58333 -10.58334 h 5.82083 5.82084 v -10.82888 -10.82887 l 1.38906,-0.15652 c 3.55459,-0.4005 22.49621,-2.01365 22.58632,-1.92354 0.0559,0.0559 0.1017,5.41983 0.1017,11.91976 v 11.81805 h 9.78958 9.78959 v 10.58334 10.58333 h -9.80475 -9.80475 l 0.09,15.80885 c 0.0952,16.709065 0.0886,16.61894 1.34544,18.421901 0.29176,0.418526 1.07722,1.009166 1.74547,1.312534 1.73208,0.786313 8.06001,0.944174 12.50599,0.311984 1.74222,-0.247735 3.20035,-0.409562 3.24028,-0.359617 0.0869,0.108707 1.41783,19.904268 1.34489,20.0034 -0.0279,0.03786 -1.11515,0.301175 -2.4162,0.585134 -5.25725,1.14741 -12.59785,1.690814 -17.95787,1.32937 z m 210.21146,-40.347936 v -39.5552 h 12.17084 12.17083 v 39.5552 39.555215 h -12.17083 -12.17084 z m 39.6875,29.518032 v -10.03718 l 14.43599,-18.293822 c 7.9398,-10.0616 14.50099,-18.46315 14.58039,-18.67011 0.12372,-0.32236 -1.83136,-0.37629 -13.64223,-0.37629 h -13.78665 v -10.45104 -10.45104 h 28.71045 28.710439 l -0.0693,10.06189 -0.06929,10.0619 -14.635824,18.5396 c -8.04971,10.19678 -14.588225,18.587214 -14.530045,18.645398 0.0582,0.05819 6.852683,0.105794 15.098846,0.105794 h 14.993065 v 10.451041 10.451042 h -29.897921 -29.89792 z"
             id="path6063"
             inkscape:connector-curvature="0"
             sodipodi:nodetypes="cscsscccccsccccccccsccsssscscccccsccssscccsccssccsccscccsccscccscscsccccccccccccccccccscccccccccccscccccccccccssccssccccccccccsscccccccccccccscccccccccccccscscccccccscscccccc" />
          <path
             style="opacity:0.98999999;fill:#e84f2d;fill-opacity:1;stroke:none;stroke-width:3.27253842;stroke-miterlimit:4;stroke-dasharray:none;stroke-dashoffset:0;stroke-opacity:1"
             d="m -146.84374,-179.06102 a 14.930059,14.552083 0 0 1 -14.93006,14.55208 14.930059,14.552083 0 0 1 -14.93006,-14.55208 14.930059,14.552083 0 0 1 14.93006,-14.55208 14.930059,14.552083 0 0 1 14.93006,14.55208 z"
             id="path6065"
             inkscape:connector-curvature="0" />
        </g>
        <g
           aria-label="Trade"
           style="font-style:normal;font-variant:normal;font-weight:normal;font-stretch:normal;font-size:10.58333302px;line-height:1.25;font-family:Facit;-inkscape-font-specification:Facit;letter-spacing:0px;word-spacing:0px;fill:#e84f2d;fill-opacity:1;stroke:#e84f2d;stroke-width:9.10000038;stroke-miterlimit:4;stroke-dasharray:none;stroke-opacity:0.99215686"
           id="text6043-3-2">
          <path
             d="m 378.24095,423.35756 h -38.48861 v 94.99162 h -14.32471 v -94.99162 h -38.4886 v -12.73307 h 91.30192 z"
             style="font-size:148.16667175px;letter-spacing:5.09852076px;fill:#53ab56;fill-opacity:1;stroke:#53ab56;stroke-width:9.10000038;stroke-miterlimit:4;stroke-dasharray:none;stroke-opacity:0.99215686"
             id="path45"
             inkscape:connector-curvature="0" />
          <path
             d="m 432.82482,452.36871 h -0.72347 q -3.03857,-0.72347 -5.93245,-1.01286 -2.82153,-0.36173 -6.72827,-0.36173 -6.29419,0 -12.1543,2.82153 -5.86011,2.74919 -11.28613,7.16236 v 57.37117 h -13.60124 v -80.81161 h 13.60124 v 11.93726 q 8.10286,-6.51123 14.25236,-9.18807 6.22184,-2.74919 12.66072,-2.74919 3.54501,0 5.13664,0.21705 1.59164,0.14469 4.7749,0.65112 z"
             style="font-size:148.16667175px;letter-spacing:5.09852076px;fill:#53ab56;fill-opacity:1;stroke:#53ab56;stroke-width:9.10000038;stroke-miterlimit:4;stroke-dasharray:none;stroke-opacity:0.99215686"
             id="path47"
             inkscape:connector-curvature="0" />
          <path
             d="m 511.06618,518.34918 h -13.52889 v -8.60929 q -1.80868,1.2299 -4.9196,3.47265 -3.03857,2.17041 -5.93245,3.47266 -3.40031,1.66398 -7.81348,2.74919 -4.41317,1.15755 -10.34562,1.15755 -10.9244,0 -18.52083,-7.2347 -7.59644,-7.2347 -7.59644,-18.44849 0,-9.18807 3.90674,-14.83113 3.97908,-5.71542 11.28613,-8.97103 7.3794,-3.25562 17.72502,-4.41317 10.34562,-1.15755 22.21053,-1.73633 v -2.09806 q 0,-4.63021 -1.66398,-7.66879 -1.59164,-3.03857 -4.63021,-4.7749 -2.89388,-1.66398 -6.94531,-2.24276 -4.05144,-0.57877 -8.4646,-0.57877 -5.35368,0 -11.93726,1.44694 -6.58358,1.37459 -13.60124,4.05143 h -0.72347 V 439.2739 q 3.97909,-1.0852 11.50318,-2.38745 7.52409,-1.30224 14.83113,-1.30224 8.53695,0 14.83114,1.44694 6.36654,1.37459 10.99675,4.7749 4.55786,3.32796 6.94531,8.60929 2.38745,5.28133 2.38745,13.09481 z m -13.52889,-19.89542 v -22.49992 q -6.22184,0.36173 -14.68644,1.0852 -8.39226,0.72347 -13.31185,2.09806 -5.86011,1.66399 -9.47746,5.20899 -3.61735,3.47265 -3.61735,9.62215 0,6.94531 4.19613,10.49032 4.19612,3.47265 12.80542,3.47265 7.16235,0 13.0948,-2.74918 5.93246,-2.82154 10.99675,-6.72827 z"
             style="font-size:148.16667175px;letter-spacing:5.09852076px;fill:#53ab56;fill-opacity:1;stroke:#53ab56;stroke-width:9.10000038;stroke-miterlimit:4;stroke-dasharray:none;stroke-opacity:0.99215686"
             id="path49"
             inkscape:connector-curvature="0" />
          <path
             d="m 608.04539,518.34918 h -13.60123 v -8.4646 q -5.86011,5.06429 -12.22665,7.88583 -6.36654,2.82153 -13.81828,2.82153 -14.4694,0 -23.00635,-11.14144 -8.4646,-11.14144 -8.4646,-30.89217 0,-10.27328 2.89388,-18.3038 2.96623,-8.03051 7.95818,-13.67358 4.91959,-5.49837 11.43082,-8.39225 6.58358,-2.89388 13.60124,-2.89388 6.36654,0 11.28613,1.37459 4.9196,1.30225 10.34563,4.12378 v -35.01595 h 13.60123 z m -13.60123,-19.89542 v -46.37444 q -5.49838,-2.4598 -9.8392,-3.40031 -4.34082,-0.94051 -9.47746,-0.94051 -11.43082,0 -17.79736,7.95817 -6.36654,7.95817 -6.36654,22.57227 0,14.39705 4.9196,21.92114 4.9196,7.45174 15.77165,7.45174 5.78776,0 11.72021,-2.53214 5.93246,-2.60449 11.0691,-6.65592 z"
             style="font-size:148.16667175px;letter-spacing:5.09852076px;fill:#53ab56;fill-opacity:1;stroke:#53ab56;stroke-width:9.10000038;stroke-miterlimit:4;stroke-dasharray:none;stroke-opacity:0.99215686"
             id="path51"
             inkscape:connector-curvature="0" />
          <path
             d="m 707.55676,479.35414 h -59.54159 q 0,7.45175 2.24276,13.02247 2.24275,5.49837 6.14949,9.04337 3.76205,3.47266 8.89868,5.20899 5.20899,1.73633 11.43083,1.73633 8.24756,0 16.56746,-3.25562 8.39226,-3.32796 11.93726,-6.51123 h 0.72347 v 14.83114 q -6.87296,2.89388 -14.03532,4.84725 -7.16235,1.95336 -15.04818,1.95336 -20.11246,0 -31.3986,-10.85205 -11.28613,-10.92439 -11.28613,-30.96452 0,-19.82308 10.7797,-31.47094 10.85205,-11.64787 28.50472,-11.64787 16.35043,0 25.17676,9.5498 8.89869,9.54981 8.89869,27.13013 z m -13.23951,-10.41796 q -0.0723,-10.70736 -5.42602,-16.56747 -5.28133,-5.86011 -16.13339,-5.86011 -10.92439,0 -17.43562,6.43889 -6.43889,6.43888 -7.30705,15.98869 z"
             style="font-size:148.16667175px;letter-spacing:5.09852076px;fill:#53ab56;fill-opacity:1;stroke:#53ab56;stroke-width:9.10000038;stroke-miterlimit:4;stroke-dasharray:none;stroke-opacity:0.99215686"
             id="path53"
             inkscape:connector-curvature="0" />
        </g>
      </g>
    </g>
  </g>
</svg>
