<svg xmlns="http://www.w3.org/2000/svg" width="72.504" height="61.059" viewBox="0 0 72.504 61.059">
  <g id="Tilda_Icons_28_law_trial" transform="translate(-4.705 -11.54)">
    <path id="Path_11376" data-name="Path 11376" d="M82.266,51.966a1.189,1.189,0,0,0-.47-.781L55.55,31.782,58.3,28.059a3.127,3.127,0,0,0,.4.033,3.3,3.3,0,0,0,.483-.036,3.188,3.188,0,0,0,2.1-1.266l2.015-2.725a3.212,3.212,0,0,0-.673-4.488L52.61,12.167a3.214,3.214,0,0,0-4.488.673l-2.015,2.726a3.2,3.2,0,0,0-.329,3.222L34.922,33.474a3.119,3.119,0,0,0-2.985,1.262l-2.015,2.725a3.208,3.208,0,0,0,.672,4.488l10.024,7.41a3.184,3.184,0,0,0,1.9.629A3.3,3.3,0,0,0,43,49.953a3.188,3.188,0,0,0,2.1-1.266l2.015-2.726a3.119,3.119,0,0,0,.332-3.224l2.758-3.731L68.85,52.785h0l7.607,5.623a1.191,1.191,0,0,0,1.665-.249l3.924-5.308A1.192,1.192,0,0,0,82.266,51.966ZM49,36.632h0l-3.216,4.351-8.7-6.432L47.443,20.542l8.7,6.432-6.384,8.636Zm-.981-19.652,2.015-2.725a.829.829,0,0,1,1.158-.174l10.024,7.41a.829.829,0,0,1,.174,1.158l-2.015,2.725a.827.827,0,0,1-.543.327.818.818,0,0,1-.614-.153L48.2,18.139A.829.829,0,0,1,48.023,16.981ZM45.207,44.544h0L43.191,47.27a.827.827,0,0,1-1.157.174L32.01,40.034a.827.827,0,0,1-.174-1.157l2.015-2.726a.829.829,0,0,1,1.158-.173l10.024,7.41a.826.826,0,0,1,.174,1.157ZM54.134,33.7,71.816,46.769l-2.508,3.393L51.626,37.091ZM76.915,55.785l-5.692-4.208,2.508-3.393,5.692,4.208Z" transform="translate(-5.071 0)" fill="#fff"/>
    <path id="Path_11377" data-name="Path 11377" d="M45.937,72.462H15.774a1.19,1.19,0,0,0-1.191,1.191V83.972a1.19,1.19,0,0,0,1.191,1.191H45.937a1.19,1.19,0,0,0,1.191-1.191V73.653A1.19,1.19,0,0,0,45.937,72.462ZM44.747,82.781H16.964V74.843H44.747Z" transform="translate(-2.037 -12.563)" fill="#fff"/>
    <path id="Path_11378" data-name="Path 11378" d="M12.973,63.8a1.191,1.191,0,0,0,.223-2.36L6.119,60.088a1.19,1.19,0,0,0-.448,2.338l7.077,1.356A1.145,1.145,0,0,0,12.973,63.8Z" transform="translate(0 -10.007)" fill="#fff"/>
    <path id="Path_11379" data-name="Path 11379" d="M6.017,52.322l9.036,5a1.191,1.191,0,0,0,1.153-2.084l-9.036-5a1.191,1.191,0,1,0-1.153,2.084Z" transform="translate(-0.144 -7.949)" fill="#fff"/>
    <path id="Path_11380" data-name="Path 11380" d="M18.752,50.9a1.19,1.19,0,0,0,1.857-1.489l-4.644-5.8A1.19,1.19,0,1,0,14.108,45.1Z" transform="translate(-1.885 -6.522)" fill="#fff"/>
  </g>
</svg>