<svg xmlns="http://www.w3.org/2000/svg" width="13.09" height="17.624" viewBox="0 0 13.09 17.624"><defs><style>.a{fill:#c9524d;}</style></defs><g transform="translate(-62.919 0)"><g transform="translate(62.919 0)"><path class="a" d="M75.966,7.956l-.861-1.178a.222.222,0,0,1,0-.256l.843-1.189a.221.221,0,0,0-.076-.321l-1.286-.688a.215.215,0,0,1-.112-.231l.241-1.437A.22.22,0,0,0,74.5,2.4l-1.456-.061a.22.22,0,0,1-.2-.159l-.4-1.405a.22.22,0,0,0-.3-.141l-1.34.576a.228.228,0,0,1-.252-.054L69.579.073a.222.222,0,0,0-.331,0l-.958,1.1a.216.216,0,0,1-.249.058L66.693.678a.22.22,0,0,0-.3.144l-.385,1.405a.223.223,0,0,1-.2.162l-1.455.083a.222.222,0,0,0-.205.259l.263,1.434a.218.218,0,0,1-.108.231L63.032,5.1a.221.221,0,0,0-.072.321L63.821,6.6a.222.222,0,0,1,0,.256l-.843,1.189a.221.221,0,0,0,.076.321l1.286.688a.215.215,0,0,1,.112.231l-.241,1.437a.22.22,0,0,0,.209.256l1.456.061a.22.22,0,0,1,.2.159l.407,1.4a.22.22,0,0,0,.3.141l1.34-.576a.228.228,0,0,1,.252.054l.973,1.084a.222.222,0,0,0,.331,0l.958-1.1a.216.216,0,0,1,.249-.058l1.347.555a.22.22,0,0,0,.3-.144l.385-1.405a.223.223,0,0,1,.2-.162l1.456-.083a.222.222,0,0,0,.205-.259l-.263-1.434a.218.218,0,0,1,.108-.231L75.9,8.273A.212.212,0,0,0,75.966,7.956Zm-6.5,2.691a3.956,3.956,0,1,1,3.956-3.956A3.962,3.962,0,0,1,69.467,10.647Z" transform="translate(-62.919 0)"/><path class="a" d="M267.015,366.513a1.141,1.141,0,0,1-.814.339,1.244,1.244,0,0,1-.328-.047l-.93-.281-.717.656c-.025.022-.047.043-.072.061l1.153,3.574a.163.163,0,0,0,.285.05l.839-1.077a.161.161,0,0,1,.173-.058l1.308.382a.163.163,0,0,0,.2-.205Z" transform="translate(-256.904 -353.309)"/><path class="a" d="M118.312,366.524l-.929.281a1.127,1.127,0,0,1-.328.047,1.147,1.147,0,0,1-.814-.339l-1.1,3.4a.163.163,0,0,0,.2.205l1.308-.382a.159.159,0,0,1,.173.058l.839,1.077a.163.163,0,0,0,.285-.05l1.153-3.574a.584.584,0,0,1-.072-.061Z" transform="translate(-113.253 -353.309)"/><path class="a" d="M176.559,113.3l-1.492-.108-.562-1.383a.313.313,0,0,0-.58,0l-.562,1.383-1.492.108a.313.313,0,0,0-.18.551l1.142.966-.357,1.452a.313.313,0,0,0,.468.342l1.268-.789,1.268.789a.313.313,0,0,0,.468-.342l-.357-1.452,1.142-.966A.312.312,0,0,0,176.559,113.3Z" transform="translate(-167.666 -107.592)"/></g></g></svg>