<svg xmlns="http://www.w3.org/2000/svg" width="57" height="53.612" viewBox="0 0 57 53.612">
  <path id="Path_11509" data-name="Path 11509" d="M596.148,191.478l-3.477-8.805a1.137,1.137,0,0,0-1.764-.762l-9.347,3.451a1.147,1.147,0,0,0,.766,2.147l6.979-2.6-11.652,25.635-5.948-10.127a1.149,1.149,0,0,0-2.025.092l-8.559,18.266-6.89-13.2a1.089,1.089,0,0,0-1.046-.619,1.138,1.138,0,0,0-.983.619l-10.691,23.374v-45.9a1.145,1.145,0,0,0-2.291,0v51.237a.815.815,0,0,0,0,.133v.214l.052.107.055.088.07.092.066.085.085.077.085.07.114.066.07.041h0l.173.059H591.42a1.145,1.145,0,0,0,0-2.291H542.145l11.14-24.335,6.872,13.2a1.151,1.151,0,0,0,1.547.486,1.134,1.134,0,0,0,.508-.534l8.621-18.384,5.966,10.146a1.143,1.143,0,0,0,1.565.409,1.108,1.108,0,0,0,.464-.516l12.624-27.686,2.563,6.5a1.146,1.146,0,0,0,2.132-.84Z" transform="translate(-539.218 -181.712)" fill="#fff"/>
</svg> 