<svg xmlns="http://www.w3.org/2000/svg" width="59.86" height="63.867" viewBox="0 0 59.86 63.867">
  <g id="Tilda_Icons_2web_magnifier" transform="translate(-9.318 -6.554)">
    <path id="Path_11372" data-name="Path 11372" d="M64.129,19.161A17.423,17.423,0,1,0,65.5,43.774,17.329,17.329,0,0,0,64.129,19.161ZM63.85,42.3A15.227,15.227,0,1,1,51.66,16.947c.289-.015.576-.024.862-.024A15.227,15.227,0,0,1,63.85,42.3Z" transform="translate(-6.822 -2.162)" fill="#fff"/>
    <path id="Path_11373" data-name="Path 11373" d="M45.91,25.442a1.1,1.1,0,1,0,1.643,1.47A10.455,10.455,0,0,1,62.3,26.094a1.1,1.1,0,1,0,1.47-1.643A12.663,12.663,0,0,0,45.91,25.442Z" transform="translate(-9.614 -3.887)" fill="#fff"/>
    <path id="Path_11374" data-name="Path 11374" d="M69.134,28.568A23.414,23.414,0,1,0,29.409,46.725l-3.8,4.339-1.22-1.082a1.1,1.1,0,0,0-1.554.09L9.6,64.862a1.1,1.1,0,0,0,.086,1.557l4.158,3.721a1.1,1.1,0,0,0,1.557-.087L28.651,55.245a1.1,1.1,0,0,0-.09-1.56l-1.305-1.157,3.8-4.336A23.216,23.216,0,0,0,45.73,53.385c.476,0,.954-.015,1.433-.043A23.414,23.414,0,0,0,69.134,28.568ZM14.492,67.761l-2.514-2.25L23.745,52.362,26.269,54.6ZM61.629,44.042A21.209,21.209,0,1,1,44.493,8.8q.651-.04,1.3-.039A21.209,21.209,0,0,1,61.629,44.042Z" fill="#fff"/>
  </g>
</svg>